PathFileType	4	(X/Y/Z)	Run_500 02
DataRate	CameraRate	NumFrames	NumMarkers	Units	OrigDataRate	OrigDataStartFrame	OrigNumFrames
100	100	7	42	mm	100	24	128
Frame#	Time	LASI			RASI			LPSI			RPSI			RTH1			RTH2			RTH3			LTH1			LTH2			LTH3			RTB1			RTB2			RTB3			LTB1			LTB2			LTB3			RCAL			RTOE			RMT5			LCAL			LTOE			LMT5			LACR			RACR			CLAV			C7			RUA1			RUA2			RUA3			RLEL			RMEL			LUA1			LUA2			LUA3			LLEL			LMEL			RFAsuperior			RFAradius			RFAulna			LFAsuperior			LFAradius			LFAulna			
		X1	Y1	Z1	X2	Y2	Z2	X3	Y3	Z3	X4	Y4	Z4	X5	Y5	Z5	X6	Y6	Z6	X7	Y7	Z7	X8	Y8	Z8	X9	Y9	Z9	X10	Y10	Z10	X11	Y11	Z11	X12	Y12	Z12	X13	Y13	Z13	X14	Y14	Z14	X15	Y15	Z15	X16	Y16	Z16	X17	Y17	Z17	X18	Y18	Z18	X19	Y19	Z19	X20	Y20	Z20	X21	Y21	Z21	X22	Y22	Z22	X23	Y23	Z23	X24	Y24	Z24	X25	Y25	Z25	X26	Y26	Z26	X27	Y27	Z27	X28	Y28	Z28	X29	Y29	Z29	X30	Y30	Z30	X31	Y31	Z31	X32	Y32	Z32	X33	Y33	Z33	X34	Y34	Z34	X35	Y35	Z35	X36	Y36	Z36	X37	Y37	Z37	X38	Y38	Z38	X39	Y39	Z39	X40	Y40	Z40	X41	Y41	Z41	X42	Y42	Z42	

22	0.34	751.850505	1029.872338	-422.703443	748.6518139999999	991.241328	-165.326154	585.845428	1046.502137	-356.177161	582.947137	1041.222448	-256.704633	574.06122	850.728356	-124.242589	599.64286	725.595822	-132.43732	473.444067	659.578062	-159.67829	752.821203	849.39987	-463.279473	887.3089660000001	788.439497	-442.127903	906.377339	667.2775	-414.679309	381.075158	419.171037	-218.442957	315.639312	401.233793	-155.361375	256.83015	301.780938	-212.079134	980.397316	451.648447	-341.939895	924.641356	373.481169	-405.038801	944.241135	297.91727	-337.29684	106.427716	305.271707	-226.561444	171.248816	90.12545	-245.146083	126.486936	120.088071	-163.363037	812.421522	171.307031	-322.892523	1037.665099	129.334956	-311.734798	982.961516	106.728258	-395.438891	705.9346389999999	1483.535774	-460.335675	763.821268	1498.921383	-141.29989	787.875297	1424.577713	-277.424084	671.203252	1508.608043	-282.491449	741.72357	1434.958435	-41.81616	676.511045	1362.990656	-32.719061	723.396848	1321.445038	11.779858	707.424544	1225.816026	68.35946300000001	672.4091989999999	1192.467698	0.146385	618.175602	1451.322151	-521.648557	549.4419810000001	1405.857277	-472.896147	498.602193	1370.543629	-531.167515	441.155201	1308.837602	-558.048439	440.805772	1297.6277	-482.481259	812.554772	1218.214151	46.483968	946.110283	1208.762315	-27.319223	942.756381	1141.931422	0.281287	505.34951	1223.311062	-586.829573	611.102054	1091.072583	-559.126378	550.562527	1066.787263	-589.050105	
23	0.35	755.054964	1032.170792	-421.46971	748.8537260000001	994.206566	-165.232476	589.723195	1051.616436	-357.808944	585.201984	1046.467409	-257.289521	575.583682	855.768607	-127.71008	597.634486	729.172554	-132.996555	472.581471	663.194135	-161.881825	753.092041	850.534659	-462.262327	885.598473	786.122177	-442.707749	902.0776959999999	662.39784	-416.460868	372.863489	425.114829	-217.873928	307.415963	410.789209	-155.23733	242.682262	315.894939	-211.997304	986.06546	444.669897	-343.064647	939.857632	359.804878	-406.378542	970.656111	287.451363	-337.52825	99.390046	332.642507	-223.186402	133.339239	108.941406	-244.684084	92.016395	144.381697	-162.842158	858.922447	142.896634	-322.543873	1088.355782	138.697505	-310.471493	1039.474221	109.102827	-396.452251	706.787831	1485.882408	-461.41114	764.804835	1501.736215	-142.526645	789.790256	1427.744308	-278.916906	672.835192	1511.132063	-283.445386	742.7824450000001	1437.891031	-42.968757	677.0257340000001	1365.689285	-34.458122	724.02684	1324.960158	10.820462	708.886522	1229.291502	67.792885	673.802715	1195.536535	-0.248275	618.230057	1455.083995	-521.912766	551.622955	1409.234757	-470.741872	497.927885	1376.095028	-527.024189	439.385479	1315.555095	-554.451613	440.730373	1303.193071	-479.120057	813.981329	1222.368044	45.181275	946.280123	1214.733625	-30.393912	944.754512	1148.062663	-1.996588	502.574383	1230.363164	-585.375962	609.299666	1097.217442	-561.285274	548.913018	1072.823281	-590.692714	
24	0.36	757.143809	1032.638191	-420.89437	748.819406	997.432549	-165.070044	592.2146279999999	1055.146825	-358.945987	586.552355	1050.641652	-257.656495	577.567722	858.46758	-132.622288	599.197244	729.853747	-134.95482	476.034994	663.20299	-164.280304	751.618516	848.971346	-462.308521	881.70291	780.147752	-443.433468	893.793909	652.929844	-418.756	368.085676	429.140402	-218.36286	302.555168	419.115253	-155.708143	231.202666	331.878897	-214.887082	988.720273	436.763347	-344.582073	954.067829	347.164059	-407.648641	992.062259	279.084023	-337.872307	90.232902	360.291436	-220.736874	100.292914	133.430687	-244.438686	63.510764	172.159305	-160.96596	900.810787	121.179656	-322.606838	1128.471923	151.858501	-308.171554	1085.814409	114.316184	-395.809889	708.2117	1487.155079	-462.657207	765.675977	1503.564611	-143.577171	791.840418	1429.936806	-280.271184	674.754086	1513.081023	-284.611126	742.769721	1439.615631	-44.051453	676.468014	1366.748028	-36.858791	723.270653	1327.39829	9.953339	708.73698	1231.54066	66.85243199999999	673.8711929999999	1197.585437	-1.20795	618.798981	1457.058098	-521.874267	554.293241	1410.344263	-468.715501	498.59645	1378.569026	-523.146429	439.262068	1318.957999	-551.821386	442.24486	1305.066862	-476.816633	814.043631	1224.86741	44.125007	945.384903	1217.690853	-33.199703	945.234436	1151.73132	-3.224792	502.515749	1234.353873	-584.935975	610.083569	1100.929905	-563.733852	549.783961	1076.088174	-592.539089	
25	0.37	758.01868	1031.847166	-420.954003	748.986703	1000.857698	-164.397932	593.132532	1056.478283	-359.375697	587.09527	1053.283858	-257.733942	580.35387	858.847981	-136.878861	604.328049	727.494841	-137.948269	483.439747	659.859617	-166.306761	748.900846	845.247074	-464.103178	875.437903	769.814151	-444.155916	881.2669560000001	639.843918	-421.275862	367.635321	432.262586	-220.384387	300.997885	427.433684	-156.594191	223.040413	349.816629	-219.060116	988.342177	429.798216	-345.39068	963.963899	337.287788	-408.68545	1006.860896	273.941057	-337.496561	80.652205	389.193976	-219.388975	74.61514	162.582926	-244.535112	42.336979	202.721197	-158.482458	933.820163	106.671829	-322.932254	1155.556857	165.702573	-305.257975	1118.936136	121.458596	-394.045232	710.240398	1487.23857	-464.058327	766.610356	1504.148769	-144.649354	793.827767	1430.776837	-281.504235	677.177329	1514.128378	-286.029883	741.873412	1440.168434	-45.220753	675.257021	1366.677398	-39.776464	721.307397	1328.803287	9.021349000000001	707.028195	1232.649771	65.600393	672.587578	1198.67768	-2.680732	620.164667	1457.19913	-521.805765	557.36934	1409.429471	-467.213557	500.637567	1378.11941	-520.054701	440.895325	1319.123277	-550.564289	445.311272	1303.58318	-475.959606	812.685956	1225.66181	43.179172	943.53934	1217.475738	-35.458183	944.049483	1152.590678	-3.528323	504.69238	1235.064842	-585.6149830000001	613.421256	1102.196881	-566.415786	553.069123	1076.648069	-594.404525	
26	0.38	757.861436	1030.461588	-421.410899	749.2139539999999	1003.824928	-162.837216	592.459517	1055.286929	-359.030501	587.140569	1054.006995	-257.493975	584.5742289999999	856.760178	-138.625873	612.342092	722.67805	-141.293977	493.958361	653.712619	-167.752146	745.278806	840.076153	-467.73768	867.338871	755.948632	-444.972105	866.864633	625.904124	-423.763554	371.422655	434.615341	-223.757557	303.138341	435.750655	-157.926714	218.202664	368.063594	-221.842419	985.150542	424.585768	-344.876437	967.792366	330.460336	-409.510104	1014.213844	271.459867	-336.240779	74.99148700000001	419.373278	-219.121106	56.369219	194.211161	-244.339032	27.846511	235.57872	-156.462172	954.422335	97.48132099999999	-323.577792	1169.262775	176.6037	-302.284903	1137.796138	128.708761	-392.458359	712.905622	1485.971178	-465.683969	767.756807	1503.323162	-145.868604	795.51703	1430.032991	-282.667179	679.99127	1514.116287	-287.726202	740.5772449999999	1439.635279	-46.576157	673.740986	1366.001242	-42.895791	718.471138	1329.135997	7.888297	703.893549	1232.716496	64.14151200000001	669.98894	1198.894123	-4.501177	622.458987	1455.458012	-522.386167	560.714418	1406.72035	-466.715925	503.895644	1375.037637	-518.399557	444.252955	1316.259731	-551.132234	449.829703	1299.143046	-476.959487	809.91148	1224.637451	42.28532	940.688457	1214.2463	-36.68482	940.981358	1150.354421	-3.100935	508.781966	1232.566221	-587.329236	619.224528	1101.027536	-569.212775	558.6773020000001	1074.605113	-596.234271	
27	0.39	756.9024899999999	1028.812512	-422.065795	749.075891	1005.302384	-160.864233	590.427554	1051.760999	-358.026453	586.979808	1052.479495	-257.025403	590.1831570000001	851.821453	-137.569919	621.8624610000001	716.4040189999999	-144.191105	506.221591	645.551495	-168.515544	740.90476	834.329111	-472.440431	858.871229	741.909553	-446.173242	855.10104	614.889627	-425.659168	378.116633	435.543661	-227.065115	309.374744	443.107141	-159.710896	216.646834	384.518899	-221.649004	979.8551629999999	420.490368	-343.728894	965.842454	325.385736	-410.278352	1014.376888	269.42603	-334.935788	77.36931800000001	449.327451	-219.877484	43.868545	226.19281	-242.901589	18.616274	270.305725	-155.170623	960.9695850000001	90.954672	-324.055484	1171.168034	181.464967	-299.956631	1142.983152	132.476059	-392.011827	716.106557	1483.207271	-467.620365	769.098751	1501.092268	-147.242171	796.686323	1427.732858	-283.793778	682.6400640000001	1513.119103	-289.678762	739.356228	1438.122251	-48.118695	672.00316	1364.981342	-45.809519	715.115537	1328.342595	6.516792	699.472794	1231.86194	62.589925	666.067218	1198.367523	-6.437442	625.522417	1451.822601	-524.2046309999999	564.070913	1402.303629	-467.539111	508.044006	1369.592656	-518.799636	449.096046	1310.607906	-553.882064	455.448343	1292.12294	-480.039585	805.743387	1221.778171	41.533632	936.6790130000001	1208.312682	-36.579308	935.873786	1144.968842	-2.049156	514.7295789999999	1227.283041	-590.130691	627.263501	1097.558311	-572.001319	566.532664	1070.115903	-598.16219	
28	0.4	755.300986	1026.768071	-422.919699	748.5830570000001	1004.51398	-159.526218	587.497671	1046.605691	-356.643356	586.7056229999999	1048.565024	-256.515166	596.337907	844.055366	-134.732412	631.340693	709.595862	-145.962208	518.706694	636.077683	-168.379249	735.965286	828.877657	-476.700569	851.980947	732.249506	-448.026881	849.527473	609.353899	-426.427138	386.398652	434.316017	-228.43254	319.643157	448.487	-161.670382	218.905947	398.029179	-219.134833	973.016858	416.097279	-343.19876	958.8547150000001	320.095099	-411.009805	1008.015348	265.318504	-334.468793	89.37077499999999	476.598693	-221.725054	35.765976	257.210644	-239.933976	14.266808	305.95316	-154.03494	953.8095080000001	85.909064	-323.378848	1163.488973	177.96471	-298.931432	1135.719418	128.921398	-392.629605	719.613353	1478.846548	-469.850913	770.389509	1497.601937	-148.684766	797.281546	1424.098615	-284.85402	684.576464	1511.23551	-291.869707	738.369186	1435.668748	-49.732669	669.899185	1363.580114	-48.241192	711.448921	1326.420562	4.958172	693.84865	1230.208304	61.029419	660.784719	1197.208202	-8.326753	628.9882679999999	1446.31055	-527.29796	567.07892	1396.067115	-469.770568	512.814484	1361.936832	-521.6734740000001	455.116667	1302.350717	-558.888165	461.625358	1282.851861	-485.12003	800.183857	1217.225105	41.091779	931.419383	1199.90877	-35.204471	928.695753	1136.672015	-0.34534	522.6716249999999	1219.662769	-594.255043	637.266662	1092.066382	-574.707045	576.624721	1063.414966	-600.443338	
